<svg xmlns="http://www.w3.org/2000/svg" viewBox="0 0 1000 750" role="img" aria-labelledby="title desc">
  <title id="title">Original supply chain control visualization</title>
  <desc id="desc">Abstract control room interface for chemical sourcing, compliance, and logistics milestones.</desc>
  <defs>
    <linearGradient id="bg" x1="0" x2="1" y1="0" y2="1">
      <stop offset="0" stop-color="#111827"/>
      <stop offset=".5" stop-color="#020617"/>
      <stop offset="1" stop-color="#0f172a"/>
    </linearGradient>
    <filter id="soft" x="-20%" y="-20%" width="140%" height="140%">
      <feGaussianBlur stdDeviation="5" result="blur"/>
      <feMerge><feMergeNode in="blur"/><feMergeNode in="SourceGraphic"/></feMerge>
    </filter>
  </defs>
  <rect width="1000" height="750" fill="url(#bg)"/>
  <g opacity=".18" stroke="#67e8f9">
    <path d="M0 90h1000M0 180h1000M0 270h1000M0 360h1000M0 450h1000M0 540h1000M0 630h1000"/>
    <path d="M100 0v750M200 0v750M300 0v750M400 0v750M500 0v750M600 0v750M700 0v750M800 0v750M900 0v750"/>
  </g>
  <g transform="translate(80 90)">
    <rect x="0" y="0" width="840" height="560" rx="24" fill="#020617" opacity=".78" stroke="#67e8f9" stroke-opacity=".18"/>
    <rect x="38" y="44" width="270" height="182" rx="18" fill="#111827" stroke="#67e8f9" stroke-opacity=".18"/>
    <rect x="336" y="44" width="466" height="182" rx="18" fill="#111827" stroke="#67e8f9" stroke-opacity=".18"/>
    <rect x="38" y="258" width="764" height="254" rx="18" fill="#111827" stroke="#67e8f9" stroke-opacity=".18"/>
    <g stroke="#67e8f9" stroke-width="5" stroke-linecap="round" fill="none" filter="url(#soft)">
      <path d="M80 178c48-80 102-82 156-20"/>
      <path d="M383 170h360"/>
      <path d="M383 108h230"/>
      <path d="M88 392h168l96-72 128 92 114-116 166 74"/>
    </g>
    <g fill="#67e8f9">
      <circle cx="88" cy="392" r="9"/><circle cx="256" cy="392" r="9"/><circle cx="352" cy="320" r="9"/>
      <circle cx="480" cy="412" r="9"/><circle cx="594" cy="296" r="9"/><circle cx="760" cy="370" r="9"/>
    </g>
    <g fill="#22c55e">
      <rect x="383" y="135" width="72" height="14" rx="7"/>
      <rect x="478" y="135" width="110" height="14" rx="7"/>
    </g>
    <g fill="#f59e0b">
      <rect x="618" y="135" width="70" height="14" rx="7"/>
    </g>
  </g>
</svg>
